<svg width="837" height="352" viewBox="0 0 837 352" fill="none" xmlns="http://www.w3.org/2000/svg">
<path d="M191.5 189.5H240V241H191.5V346H134.5V241H1.19209e-06V6H57V189.5H134.5V94.5H191.5V189.5ZM413.039 352C327.539 352 282.539 291 282.539 176C282.539 61 327.539 -1.57356e-05 413.039 -1.57356e-05C498.539 -1.57356e-05 543.539 61 543.539 176C543.539 291 498.539 352 413.039 352ZM413.039 302C464.039 302 489.039 260.5 489.039 176C489.039 91.5 464.039 50 413.039 50C362.039 50 337.039 91.5 337.039 176C337.039 260.5 362.039 302 413.039 302ZM787.691 189.5H836.191V241H787.691V346H730.691V241H596.191V6H653.191V189.5H730.691V94.5H787.691V189.5Z" fill="#6C6C6C"/>
</svg>
