<svg width="40" height="40" viewBox="0 0 40 40" fill="none" xmlns="http://www.w3.org/2000/svg">
<rect width="40" height="40" rx="20" fill="white"/>
<path d="M32.833 25.3564C27.1751 21.1363 23.8923 15.1801 23.7567 8.90197C23.7521 8.67853 23.5724 8.5 23.3486 8.5H16.6563C16.4325 8.5 16.2528 8.67853 16.2482 8.90197C16.1126 15.178 12.8241 21.1363 7.16629 25.3564C6.98655 25.4901 6.94585 25.742 7.07698 25.9227L10.9917 31.3301C11.1251 31.5141 11.3851 31.5558 11.5671 31.4199C15.1054 28.7978 17.9507 25.6379 20.0002 22.1319C22.0497 25.6379 24.8961 28.7978 28.4333 31.4199C28.6153 31.5558 28.8753 31.5141 29.0087 31.3301L32.9234 25.9227C33.0545 25.742 33.0127 25.4901 32.833 25.3564Z" fill="#FF875B"/>
</svg>
