<svg width="256" height="60" viewBox="0 0 256 60" fill="none" xmlns="http://www.w3.org/2000/svg">
<path d="M71.8652 38.3601H82.2066V39.9849H73.6363V44.8891H81.7601V46.4914H73.6363V53.4294H71.8765V38.3639H71.869L71.8652 38.3601Z" fill="#0C0C4F"/>
<path d="M92.0977 38.1387C93.1971 38.12 94.2328 38.3076 95.1896 38.6978C96.154 39.0881 96.9682 39.6209 97.6474 40.3001C98.334 40.9867 98.8594 41.8085 99.2384 42.7728C99.6286 43.7372 99.805 44.7803 99.7975 45.891C99.8162 47.0017 99.6286 48.0411 99.2384 49.0092C98.8556 49.9735 98.3303 50.8066 97.6474 51.482C96.9682 52.1611 96.1464 52.694 95.1896 53.073C94.2328 53.4632 93.2009 53.6471 92.0977 53.632C90.9983 53.6508 89.9626 53.4632 89.0058 53.073C88.0489 52.6827 87.2272 52.1574 86.5405 51.482C85.8613 50.7953 85.3285 49.9735 84.9495 49.0092C84.5705 48.0449 84.3829 47.0017 84.3904 45.891C84.3717 44.4089 84.6869 43.0693 85.3548 41.8835C86.0152 40.6978 86.9383 39.7672 88.124 39.1068C89.3097 38.4464 90.6305 38.1237 92.1052 38.1425H92.0977V38.1387ZM92.0977 51.9623C93.8088 51.9623 95.2159 51.3957 96.3078 50.27C97.3997 49.1368 97.9513 47.6771 97.9513 45.8985C97.9513 44.1199 97.3997 42.664 96.3078 41.5383C95.2159 40.4051 93.8088 39.8348 92.0977 39.8348C90.3866 39.8348 88.972 40.4014 87.8801 41.5383C86.7882 42.6753 86.2366 44.1312 86.2366 45.8985C86.2366 47.6659 86.7882 49.1255 87.8801 50.2587C88.972 51.3919 90.3866 51.9623 92.0977 51.9623Z" fill="#0C0C4F"/>
<path d="M102.889 38.3601H104.649V47.9398C104.649 49.2531 105.006 50.2587 105.715 50.9566C106.435 51.6508 107.426 51.9998 108.687 51.9998C109.947 51.9998 111.006 51.6433 111.703 50.9341C112.39 50.2137 112.735 49.2156 112.735 47.9435V38.3639H114.495V48.0936C114.495 49.8309 113.97 51.1855 112.912 52.1574C111.869 53.1405 110.454 53.632 108.675 53.632C106.897 53.632 105.441 53.133 104.416 52.1424C103.392 51.1443 102.874 49.7897 102.874 48.0936V38.3639H102.882L102.889 38.3601Z" fill="#0C0C4F"/>
<path d="M130.458 38.3601V53.4257H128.544L120.09 41.0768V53.4257H118.319V38.3601H120.225L128.679 50.6489V38.3601H130.458Z" fill="#0C0C4F"/>
<path d="M134.413 38.3602H139.452C141.857 38.3602 143.745 39.0469 145.111 40.409C146.484 41.7711 147.159 43.5947 147.159 45.8873C147.159 48.18 146.465 50.1125 145.084 51.4333C143.696 52.7616 141.816 53.422 139.452 53.422H134.413V38.3564V38.3602ZM139.771 51.7822C141.448 51.7822 142.788 51.2494 143.786 50.18C144.795 49.1031 145.302 47.681 145.302 45.9099C145.302 44.1388 144.796 42.6829 143.779 41.606C142.762 40.5215 141.426 39.9812 139.771 39.9812H136.18V51.7785H139.771V51.7822Z" fill="#0C0C4F"/>
<path d="M159.024 49.6848H151.748L150.319 53.4296H148.379L154.326 38.364H156.427L162.431 53.4296H160.457L159.028 49.6848H159.024ZM158.472 48.2364L155.373 40.1051L152.281 48.2364H158.472Z" fill="#0C0C4F"/>
<path d="M173.55 39.9099H168.638V53.437H166.859V39.9099H161.914V38.3677H173.55V39.9099Z" fill="#0C0C4F"/>
<path d="M175.955 53.4257V38.3601H177.726V53.4257H175.955Z" fill="#0C0C4F"/>
<path d="M188.66 38.1387C189.76 38.12 190.795 38.3076 191.76 38.6978C192.716 39.0881 193.538 39.6209 194.217 40.3001C194.897 40.9867 195.429 41.8085 195.808 42.7728C196.191 43.7372 196.375 44.7803 196.367 45.891C196.375 47.0017 196.191 48.0411 195.808 49.0092C195.426 49.9773 194.893 50.8066 194.217 51.482C193.542 52.1574 192.716 52.694 191.76 53.073C190.795 53.4632 189.76 53.6471 188.66 53.632C187.561 53.6508 186.525 53.4632 185.568 53.073C184.604 52.6827 183.782 52.1574 183.103 51.482C182.424 50.7953 181.891 49.9735 181.512 49.0092C181.122 48.0449 180.938 47.0017 180.953 45.891C180.927 44.4089 181.249 43.0693 181.91 41.8835C182.578 40.6978 183.501 39.7672 184.686 39.1068C185.865 38.4464 187.193 38.1237 188.66 38.1425V38.1387ZM188.66 51.9623C190.371 51.9623 191.778 51.3957 192.87 50.27C193.97 49.1368 194.514 47.6771 194.514 45.8985C194.514 44.1199 193.973 42.664 192.87 41.5383C191.778 40.4051 190.371 39.8348 188.66 39.8348C186.949 39.8348 185.534 40.4014 184.443 41.5383C183.343 42.6715 182.799 44.1312 182.799 45.8985C182.799 47.6659 183.339 49.1255 184.443 50.2587C185.534 51.3919 186.942 51.9623 188.66 51.9623Z" fill="#0C0C4F"/>
<path d="M211.714 38.3601V53.4257H209.801L201.347 41.0768V53.4257H199.575V38.3601H201.489L209.943 50.6489V38.3601H211.714Z" fill="#0C0C4F"/>
<path fill-rule="evenodd" clip-rule="evenodd" d="M73.7715 28.0602C74.7546 29.2384 75.9891 30.1427 77.4825 30.7806C78.9835 31.4072 80.657 31.7224 82.5031 31.7224C83.8577 31.7224 85.1298 31.5536 86.323 31.1971C87.5087 30.8594 88.5669 30.3491 89.4749 29.6887C90.3905 29.0095 91.0997 28.1652 91.61 27.1634C92.1353 26.154 92.3905 24.9945 92.3905 23.7337C92.3905 22.473 92.1616 21.396 91.6775 20.533C91.2123 19.6775 90.6119 18.9908 89.8802 18.4767C89.1785 17.9589 88.4393 17.5612 87.6776 17.2835C86.9571 17.0133 86.3042 16.7995 85.7376 16.6381L80.8671 15.231C80.248 15.0621 79.6138 14.8407 78.9609 14.5706C78.3418 14.3004 77.8277 13.9439 77.4112 13.5049C77.021 13.0809 76.8184 12.5293 76.8184 11.8126C76.8184 11.0959 77.0473 10.458 77.4975 9.90645C77.9628 9.33985 78.582 8.88957 79.385 8.55936C80.1879 8.23666 81.0885 8.07532 82.0941 8.08657C83.1448 8.10533 84.1016 8.30796 84.9722 8.7057C85.8352 9.09595 86.5556 9.64754 87.1335 10.3642C87.7189 11.0659 88.0903 11.9064 88.2592 12.9045C88.2779 12.9796 88.3192 13.0471 88.3868 13.0997C88.4543 13.1522 88.5406 13.1672 88.6157 13.1522L91.9777 12.5668C92.0528 12.5481 92.1316 12.5068 92.1729 12.4393C92.2254 12.3717 92.2404 12.2854 92.2254 12.2104C91.9102 10.6081 91.2836 9.23853 90.353 8.07907C89.4374 6.9196 88.2704 6.03781 86.8633 5.42993C85.4675 4.8108 83.8915 4.4881 82.1392 4.48059C80.4018 4.46183 78.8446 4.75076 77.4488 5.33612C76.0529 5.92899 74.9347 6.78452 74.1017 7.91021C73.2799 9.03591 72.8747 10.3905 72.8747 11.9665C72.8747 12.9421 73.036 13.8126 73.3662 14.5593C73.6889 15.2798 74.128 15.9064 74.6795 16.4317C75.2199 16.9383 75.839 17.3623 76.5257 17.7113C77.2049 18.0415 77.9065 18.3116 78.6345 18.533L85.156 20.473C85.6063 20.6005 86.0266 20.7619 86.4431 20.957C86.8483 21.1446 87.2048 21.381 87.5087 21.6587C87.8239 21.9139 88.0603 22.2253 88.2292 22.608C88.4055 22.957 88.4993 23.396 88.4993 23.9289C88.4993 24.7919 88.2442 25.5198 87.7451 26.139C87.2461 26.7656 86.5519 27.2647 85.6513 27.6136C84.7695 27.9626 83.7714 28.1315 82.6532 28.1315C80.9347 28.1315 79.4525 27.6999 78.188 26.8369C76.9497 25.9664 76.1317 24.7619 75.7302 23.2197C75.6964 23.0658 75.5426 22.9645 75.3925 22.9908L72.1242 23.5086C72.0379 23.5274 71.9704 23.5686 71.9216 23.6362C71.8728 23.7037 71.854 23.7788 71.8691 23.8651C72.1655 25.4748 72.7921 26.8819 73.7677 28.0752L73.7715 28.0602ZM141.711 5.33612C141.576 5.33612 141.467 5.44494 141.467 5.58002V30.8631C141.467 30.9982 141.576 31.107 141.711 31.107H145.182V21.8163H150.255C150.829 22.503 151.381 23.2122 151.925 23.9589C152.814 25.1258 153.636 26.3378 154.39 27.6024C155.077 28.7281 155.67 29.8313 156.176 30.9232L156.262 31.0995H160.379C160.555 31.0995 160.675 30.9232 160.6 30.7618C160.127 29.7299 159.617 28.7131 159.043 27.7224C158.274 26.3416 157.426 24.9682 156.503 23.6249C155.977 22.8557 155.437 22.1015 154.885 21.3735C156.42 20.9082 157.628 20.0602 158.51 18.8257C159.561 17.336 160.086 15.5837 160.086 13.5837C160.086 12.2104 159.85 10.9496 159.366 9.81639C158.882 8.66443 158.146 7.70759 157.17 6.95337C156.206 6.19165 155.009 5.7076 153.613 5.49747C153.283 5.43744 152.945 5.40366 152.596 5.38866C152.259 5.36239 151.962 5.35488 151.707 5.35488H141.703H141.711V5.34738V5.33612ZM156.304 13.5687C156.304 14.2291 156.195 14.8895 155.974 15.5349C155.752 16.1541 155.407 16.6944 154.93 17.1597C154.473 17.5987 153.88 17.9214 153.118 18.0902C152.882 18.1428 152.619 18.1841 152.338 18.2103C152.067 18.2366 151.82 18.2441 151.61 18.2441H145.189V8.89332H151.61C151.82 8.89332 152.06 8.89332 152.338 8.92709C152.608 8.9346 152.863 8.97962 153.092 9.03591C153.846 9.19726 154.446 9.5087 154.897 9.96648C155.369 10.4318 155.718 10.9834 155.94 11.61C156.161 12.2441 156.27 12.8895 156.27 13.5575H156.304V13.565V13.5687ZM255.5 5.76764V9.15598H247.65V31.0845H243.553V9.15598H235.703V5.76764C235.703 5.63256 235.812 5.52374 235.947 5.52374H255.256C255.391 5.52374 255.5 5.63256 255.5 5.76764ZM215.271 5.76764C215.271 5.63256 215.38 5.52374 215.515 5.52374H230.87C231.005 5.52374 231.114 5.63256 231.114 5.76764V9.12221H219.376V15.9327H229.819V19.4561H219.376V27.4861H232.014V30.8406C232.014 30.9757 231.905 31.0845 231.77 31.0845H215.519C215.384 31.0845 215.275 30.9757 215.275 30.8406V5.76764H215.271ZM206.089 30.9307L206.176 31.0845H209.328C209.463 31.0845 209.572 30.9757 209.572 30.8406V5.7789C209.572 5.64381 209.463 5.535 209.328 5.535H205.542V23.2347C204.881 22.184 204.119 21.0321 203.256 19.7788C202.146 18.1428 200.96 16.4843 199.681 14.7995C198.427 13.0884 197.155 11.4449 195.861 9.86142C194.581 8.25167 193.38 6.83705 192.243 5.63631L192.15 5.5425H189.185C189.05 5.5425 188.941 5.65132 188.941 5.7864V30.8556C188.941 30.9907 189.05 31.0995 189.185 31.0995H192.971V12.1391C193.489 12.7507 194.037 13.4261 194.622 14.1728C195.41 15.1822 196.225 16.2554 197.061 17.4073C197.898 18.533 198.739 19.7037 199.575 20.9233C200.438 22.1428 201.26 23.3548 202.056 24.548C202.844 25.715 203.572 26.8594 204.24 27.9513C204.934 29.0508 205.545 30.0526 206.071 30.9344H206.089V30.9307ZM184.086 5.92899L183.992 6.0303C183.365 6.71698 182.671 7.47119 181.917 8.28169H181.91L181.902 8.30045L181.471 8.76574C180.529 9.75635 179.549 10.7732 178.514 11.8314C177.504 12.8633 176.499 13.8877 175.489 14.897C174.581 15.8126 173.718 16.6569 172.908 17.4561C173.865 18.1428 174.863 18.9645 175.913 19.9289C177.073 20.9945 178.21 22.1315 179.317 23.3322C180.427 24.5442 181.467 25.7712 182.435 27.0245C183.425 28.2778 184.255 29.4823 184.908 30.623L184.96 30.7168C185.054 30.8782 184.934 31.0808 184.75 31.0808H180.371L180.277 30.9382C179.557 29.82 178.743 28.7018 177.812 27.5836C176.881 26.4392 175.898 25.3547 174.848 24.3304C173.823 23.2797 172.773 22.3154 171.707 21.4336C170.818 20.6869 169.955 20.0377 169.107 19.4861V31.0808H165.253C165.118 31.0808 165.009 30.972 165.009 30.8369V5.7864C165.009 5.65132 165.118 5.5425 165.253 5.5425H169.107V16.1541C169.275 15.9927 169.456 15.8239 169.632 15.655C170.172 15.1297 170.75 14.5781 171.358 13.9777C172.367 12.9683 173.358 11.9627 174.341 10.9533C175.324 9.94397 176.247 8.98713 177.11 8.07531C177.992 7.14474 178.735 6.33049 179.328 5.63631L179.422 5.535H183.91C184.12 5.535 184.232 5.79015 184.086 5.94025V5.93274V5.92899ZM133.497 30.8819C133.092 29.7975 132.709 28.7393 132.345 27.7074H132.338C131.989 26.7168 131.643 25.7075 131.28 24.6831L131.219 24.5142L130.356 22.0564C129.917 22.2778 129.46 22.5217 129.002 22.7844C127.722 23.4973 126.462 24.2928 125.201 25.1821C123.921 26.0452 122.694 26.9795 121.516 27.9851C120.349 28.9607 119.28 29.9663 118.33 30.9832L118.236 31.077H114.221C114.053 31.077 113.933 30.9082 113.993 30.7468C114.889 28.274 115.797 25.8088 116.721 23.3548C117.557 21.1034 118.372 18.9608 119.167 16.942C119.981 14.927 120.784 13.0021 121.58 11.1747C122.375 9.30983 123.216 7.47494 124.086 5.65132C124.128 5.56501 124.214 5.51623 124.308 5.51623H127.587C127.681 5.51623 127.764 5.56877 127.809 5.65132C128.679 7.48245 129.52 9.31733 130.315 11.1747C131.111 13.0059 131.899 14.927 132.694 16.942C133.516 18.957 134.345 21.0921 135.186 23.3548C136.116 25.8125 137.024 28.2853 137.921 30.7468C137.981 30.9082 137.861 31.077 137.692 31.077H133.576L133.501 30.8819H133.497ZM128.964 18.2516C128.615 17.3435 128.27 16.4542 127.921 15.5762V15.5574C127.268 13.8201 126.582 12.1428 125.872 10.5368C125.137 12.1466 124.424 13.8239 123.745 15.5687C123.009 17.5011 122.263 19.5086 121.527 21.5837L120.968 23.1859C122.281 22.1953 123.617 21.2797 124.957 20.443C126.353 19.5612 127.666 18.852 128.886 18.2929C128.904 18.2929 128.912 18.2854 128.927 18.2741C128.934 18.2741 128.953 18.2666 128.961 18.2554L128.964 18.2516ZM114.998 9.14848V5.76013C114.998 5.62505 114.889 5.51623 114.754 5.51623H95.4449C95.3098 5.51623 95.201 5.62505 95.201 5.76013V9.14848H103.051V30.8294C103.051 30.9645 103.16 31.0733 103.295 31.0733H106.912C107.047 31.0733 107.156 30.9645 107.156 30.8294V9.15598H114.998V9.14848Z" fill="#0C0C4F"/>
<path fill-rule="evenodd" clip-rule="evenodd" d="M0.5 30C0.5 46.3714 13.7719 59.6433 30.1433 59.6433C46.5147 59.6433 59.7866 46.3714 59.7866 30C59.7866 13.6286 46.5147 0.356689 30.1433 0.356689C13.7719 0.356689 0.5 13.6286 0.5 30Z" fill="#0C0C4F"/>
<path fill-rule="evenodd" clip-rule="evenodd" d="M17.0664 23.0131L17.7943 20.7504C17.9369 20.2926 18.3009 19.9287 18.7699 19.7936L21.0401 19.0994C21.3553 19.0056 21.3553 18.5591 21.0401 18.454L18.7774 17.726C18.3196 17.5722 17.9632 17.2195 17.8206 16.7504L17.1264 14.4803C17.0326 14.1651 16.5861 14.1651 16.481 14.4803L15.753 16.7429C15.5992 17.2007 15.2465 17.5572 14.7774 17.6998L12.5073 18.394C12.1921 18.4878 12.1846 18.9343 12.5073 19.0394L14.7699 19.7673C15.2277 19.9212 15.5917 20.2739 15.7268 20.7429L16.421 23.0131C16.5148 23.3283 16.9613 23.3358 17.0664 23.0131Z" fill="#FAFAFA"/>
<path fill-rule="evenodd" clip-rule="evenodd" d="M52.9761 21.6998C52.0343 20.6491 50.5784 20.0637 49.1563 19.8198C47.7266 19.591 46.2257 19.6097 44.8111 19.8611C41.9481 20.3452 39.3477 21.5309 37.0851 22.9943C35.9068 23.7148 34.9012 24.544 33.8656 25.3845C33.3665 25.816 32.9087 26.2663 32.436 26.7129L31.1301 28.0074C29.7155 29.4821 28.3272 30.8291 26.9801 31.9473C25.6255 33.058 24.3647 33.9023 23.1189 34.4877C21.8732 35.0805 20.5449 35.4295 18.8 35.4858C17.0815 35.5458 15.0402 35.2306 12.8639 34.724C10.6688 34.2175 8.37609 33.4858 5.802 32.8591C6.69881 35.3507 8.04589 37.5495 9.78321 39.557C11.5355 41.5308 13.7306 43.3356 16.5411 44.5214C19.3179 45.7333 22.8 46.1649 26.0608 45.512C29.329 44.8853 32.1996 43.3694 34.5147 41.6246C36.8449 39.8535 38.7248 37.846 40.3083 35.7559C40.7473 35.1818 40.9762 34.8479 41.2914 34.4014L42.162 33.1068C42.7736 32.3038 43.3214 31.3882 43.9218 30.6003C45.1 28.9417 46.267 27.2719 47.6216 25.7372C48.3008 24.9568 49.0174 24.2213 49.8655 23.5009C50.2895 23.1519 50.7473 22.8142 51.2463 22.5028C51.7641 22.1725 52.3045 21.9099 52.9724 21.7148V21.696L52.9761 21.6998Z" fill="url(#paint0_linear_695_2719)"/>
<path fill-rule="evenodd" clip-rule="evenodd" d="M52.9763 21.6997C51.9669 19.1594 50.0983 17.0243 47.588 15.4483C45.0889 13.8911 41.6255 13.0956 38.1959 13.771C36.5036 14.1012 34.8601 14.7279 33.4117 15.5759C31.9708 16.4127 30.6838 17.422 29.5768 18.5065C29.0177 19.0468 28.5187 19.6172 28.0196 20.1838L26.7251 21.8423L24.7176 24.5102C22.1585 27.9398 19.4006 31.9623 14.8753 33.1593C10.4363 34.3262 8.50758 33.2944 5.80591 32.8628C6.29746 34.1424 6.91659 35.3881 7.74586 36.4801C8.56011 37.5983 9.52446 38.6414 10.7289 39.5382C11.3406 39.9697 11.9747 40.3937 12.6839 40.7577C13.3856 41.1067 14.1586 41.4106 14.9691 41.647C16.5863 42.0973 18.4062 42.2474 20.1773 42.011C21.9371 41.7746 23.6332 41.2155 25.1078 40.4688C26.5975 39.7333 27.8845 38.8328 29.0478 37.8947C31.3442 35.9885 33.1303 33.8797 34.6462 31.7446C35.4079 30.679 36.0946 29.5946 36.7288 28.5101L37.483 27.2156C37.7119 26.8329 37.9408 26.4539 38.1772 26.1049C39.1265 24.6828 40.0571 23.5383 41.194 22.6828C42.3122 21.801 43.8619 21.1594 45.9369 21.0055C48.0045 20.8517 50.3834 21.1331 52.9988 21.726L52.98 21.6997H52.9763Z" fill="#FAFAFA"/>
<path fill-rule="evenodd" clip-rule="evenodd" d="M41.8054 42.7993C41.8054 44.6642 43.3214 46.1801 45.1863 46.1801C47.0512 46.1801 48.5671 44.6642 48.5671 42.7993C48.5671 40.9344 47.0587 39.4185 45.1863 39.4185C43.3138 39.4185 41.8054 40.9344 41.8054 42.7993Z" fill="url(#paint1_linear_695_2719)"/>
<defs>
<linearGradient id="paint0_linear_695_2719" x1="34.5147" y1="12.4015" x2="20.6011" y2="52.8102" gradientUnits="userSpaceOnUse">
<stop stop-color="#EC796B"/>
<stop offset="1" stop-color="#E175B1"/>
</linearGradient>
<linearGradient id="paint1_linear_695_2719" x1="49.0474" y1="40.3978" x2="41.3139" y2="45.2008" gradientUnits="userSpaceOnUse">
<stop stop-color="#EC796B"/>
<stop offset="1" stop-color="#E175B1"/>
</linearGradient>
</defs>
</svg>
